<svg width="193" height="18" viewBox="0 0 193 18" fill="none" xmlns="http://www.w3.org/2000/svg">
<path d="M10.4574 17V10.5682H4.46084V17H0.0601175V0.557729L4.46084 0.412649V7.11046H10.4574V0.557729H14.8582V17H10.4574ZM28.3494 10.4956V0.557729H32.7501V10.7132C32.7501 12.8572 32.065 14.5014 30.6948 15.6459C29.3407 16.7743 27.5675 17.3385 25.3752 17.3385C23.1829 17.3385 21.4017 16.7743 20.0315 15.6459C18.6774 14.5014 18.0004 12.8572 18.0004 10.7132V0.557729H22.4011V10.4956C22.4011 11.5273 22.6752 12.3172 23.2232 12.8653C23.7874 13.3972 24.5048 13.6632 25.3752 13.6632C26.2457 13.6632 26.955 13.3972 27.5031 12.8653C28.0673 12.3172 28.3494 11.5273 28.3494 10.4956ZM46.955 17V9.04484L44.7304 12.0431L42.9653 12.2849L40.3055 9.04484V17H35.9048V0.557729H38.9273L43.8841 6.8203L48.4299 0.557729H51.3557V17H46.955ZM61.5909 5.82893L60.0192 10.3022H63.2352L61.5909 5.82893ZM63.8638 0.557729L70.0055 16.5648L65.6773 17L64.4925 13.7599H58.8103L57.6738 17H53.2973L59.4631 0.557729H63.8638ZM71.9384 17V0.557729H76.0248L82.3599 9.48008V0.557729H86.7606V17H82.65L76.3391 8.34363V17H71.9384ZM95.0556 17V0.557729H99.142L105.477 9.48008V0.557729H109.878V17H105.767L99.4563 8.34363V17H95.0556ZM120.104 5.82893L118.532 10.3022H121.748L120.104 5.82893ZM122.377 0.557729L128.519 16.5648L124.191 17L123.006 13.7599H117.324L116.187 17H111.811L117.976 0.557729H122.377ZM133.837 17V4.01544H129.001V0.557729H143.073L143.485 4.01544H138.238V17H133.837ZM155.529 10.4956V0.557729H159.93V10.7132C159.93 12.8572 159.245 14.5014 157.875 15.6459C156.521 16.7743 154.748 17.3385 152.555 17.3385C150.363 17.3385 148.582 16.7743 147.212 15.6459C145.858 14.5014 145.181 12.8572 145.181 10.7132V0.557729H149.581V10.4956C149.581 11.5273 149.855 12.3172 150.403 12.8653C150.968 13.3972 151.685 13.6632 152.555 13.6632C153.426 13.6632 154.135 13.3972 154.683 12.8653C155.247 12.3172 155.529 11.5273 155.529 10.4956ZM169.855 4.01544H167.486V8.36781H169.904C170.581 8.36781 171.137 8.16631 171.572 7.76331C172.007 7.3442 172.225 6.81224 172.225 6.16744C172.225 5.44205 172.015 4.90203 171.596 4.5474C171.177 4.19276 170.597 4.01544 169.855 4.01544ZM163.085 17V0.557729H170C171.822 0.557729 173.402 1.00103 174.74 1.88762C176.094 2.75809 176.771 4.1847 176.771 6.16744C176.771 7.16688 176.561 8.02929 176.142 8.75468C175.739 9.48008 175.207 10.0685 174.546 10.5198L178.173 17H173.071L170.411 11.8255H167.486V17H163.085ZM180.11 17V0.557729H191.015L191.426 4.01544H184.511V7.01374H189.564L189.975 10.4715H184.511V13.5423H191.74L192.152 17H180.11Z" fill="white"/>
<path d="M90.9178 12.5751C91.5304 12.5751 92.0462 12.7927 92.4653 13.2279C92.9006 13.6471 93.1182 14.171 93.1182 14.7996C93.1182 15.4283 92.9006 15.9522 92.4653 16.3713C92.0462 16.7904 91.5304 17 90.9178 17C90.2892 17 89.7572 16.7904 89.322 16.3713C88.9028 15.9522 88.6933 15.4283 88.6933 14.7996C88.6933 14.171 88.9028 13.6471 89.322 13.2279C89.7572 12.7927 90.2892 12.5751 90.9178 12.5751Z" fill="#09C771"/>
</svg>
